<svg id="Layer_1" data-name="Layer 1" xmlns="http://www.w3.org/2000/svg" viewBox="0 0 2344.87 828.26"><defs><style>.cls-1{fill:#005473;}.cls-2{fill:#fdf8c1;}.cls-3{fill:none;}.cls-4{fill:#be782a;}.cls-5{fill:#f8fcff;}.cls-6{fill:#d58627;}.cls-15,.cls-7{fill:#fff;}.cls-8{fill:#e85d24;}.cls-9{fill:#f16459;}.cls-10{fill:#faaa42;}.cls-11{fill:#fbb78a;}.cls-12{fill:#00506f;opacity:0.25;}.cls-13{font-size:332.1px;fill:#f3f4f4;font-family:MidnightChampion, Midnight Champion;}.cls-14{letter-spacing:-0.01em;}.cls-15{font-size:100px;font-family:HaarlemDecoDEMO, Haarlem Deco DEMO;}.cls-16{letter-spacing:-0.07em;}.cls-17{letter-spacing:0em;}.cls-18{letter-spacing:-0.07em;}.cls-19{fill:#c0c8d5;}.cls-20{fill:#8f95a0;}.cls-21,.cls-22{fill:#0f153e;}.cls-21{opacity:0.2;}.cls-23{fill:#180b15;}.cls-24{fill:#9abde4;}.cls-25{fill:#728daa;}</style></defs><title>hackncbanner</title><path class="cls-1" d="M2375.43,857.48H36.85v-822H2375.43Z" transform="translate(-34.57 -31.32)"/><path class="cls-2" d="M36.85,735.53c98.73,12.79,733.51,85.11,1148-347.87,111.83-116.81,181.49-243.1,225.72-352.23H36.85" transform="translate(-34.57 -31.32)"/><line class="cls-3" x1="2.29" y1="704.21" x2="2.29" y2="4.11"/><path class="cls-4" d="M1206.14,217.71" transform="translate(-34.57 -31.32)"/><line class="cls-3" x1="4.6" y1="7.63" x2="2.29" y2="656.11"/><ellipse class="cls-2" cx="1014.46" cy="511.37" rx="119.98" ry="90.18" transform="translate(-149.06 606.85) rotate(-33.16)"/><path class="cls-2" d="M775.42,857.48H682.73L1028,478l-1,41.49Z" transform="translate(-34.57 -31.32)"/><path class="cls-2" d="M1114.76,857.48H992.61V568.23l43.88-48.79Z" transform="translate(-34.57 -31.32)"/><path class="cls-2" d="M1145,1030.29" transform="translate(-34.57 -31.32)"/><path class="cls-2" d="M991,727.56" transform="translate(-34.57 -31.32)"/><path class="cls-2" d="M1567.26,857.48h244.3L1084.77,530.22l-34.09,6.24Z" transform="translate(-34.57 -31.32)"/><path class="cls-2" d="M1378.72,1075.44" transform="translate(-34.57 -31.32)"/><path class="cls-2" d="M2260.34,35.43,2016,37.13,1065.37,471.48q1,15.51,2,31Z" transform="translate(-34.57 -31.32)"/><path class="cls-2" d="M2375.43,504.5V344.62L1105.2,496l-10.62,29.21Z" transform="translate(-34.57 -31.32)"/><path class="cls-2" d="M1978.86,1155.1" transform="translate(-34.57 -31.32)"/><ellipse class="cls-5" cx="1014.46" cy="511.37" rx="111.32" ry="69.44" transform="translate(-149.06 606.85) rotate(-33.16)"/><path class="cls-2" d="M1583.19,1064.81" transform="translate(-34.57 -31.32)"/><path class="cls-6" d="M35.76,723.14c97.13,12.45,721.56,82.72,1129.87-343,110.16-114.86,178.84-239,222.49-346.2L36.59,35.56" transform="translate(-34.57 -31.32)"/><circle class="cls-7" cx="1747.97" cy="562.48" r="4.25"/><circle class="cls-7" cx="1164.27" cy="723.88" r="7.3"/><circle class="cls-7" cx="1472.97" cy="46.91" r="7.3"/><circle class="cls-7" cx="1755.27" cy="273.64" r="7.3"/><circle class="cls-7" cx="1297.96" cy="775.97" r="7.3"/><circle class="cls-7" cx="697.09" cy="666.78" r="7.3"/><circle class="cls-7" cx="526.99" cy="775.97" r="4.25"/><circle class="cls-7" cx="2161.6" cy="144.63" r="5.67"/><circle class="cls-7" cx="1015.04" cy="579.29" r="7.3"/><circle class="cls-7" cx="1966.07" cy="204.56" r="7.3"/><circle class="cls-7" cx="1837.69" cy="280.94" r="7.3"/><circle class="cls-7" cx="2218.48" cy="244.94" r="7.3"/><ellipse class="cls-7" cx="1440.88" cy="553.17" rx="4.25" ry="5.06"/><path class="cls-8" d="M563.4,700.8,361.22,730.13A1870.81,1870.81,0,0,1,179.53,434.22,1873.17,1873.17,0,0,1,36.59,35.56l96-.33c56.58,106,121.69,218.19,196.62,334.43C407.77,491.54,486.82,601.83,563.4,700.8Z" transform="translate(-34.57 -31.32)"/><path class="cls-9" d="M-281,414.56" transform="translate(-34.57 -31.32)"/><path class="cls-9" d="M523.91,926.17" transform="translate(-34.57 -31.32)"/><path class="cls-8" d="M1178.46,360.16A713.84,713.84,0,0,1,1106,437.94a714.12,714.12,0,0,1-78.61,63c-87.71-81.1-191.66-202.46-259.05-371.38a963.63,963.63,0,0,1-32.22-94.82l276.38.62a473,473,0,0,0,41.62,161.16A475.05,475.05,0,0,0,1178.46,360.16Z" transform="translate(-34.57 -31.32)"/><path class="cls-8" d="M863.55,599.52A1120.76,1120.76,0,0,1,751.9,647.76c-27.6,10.19-54.14,18.75-79.33,26A1933.61,1933.61,0,0,1,431.92,334.44a1931.92,1931.92,0,0,1-135-299.19l217.18-.17a1315.28,1315.28,0,0,0,99.78,237.73A1323.91,1323.91,0,0,0,863.55,599.52Z" transform="translate(-34.57 -31.32)"/><path class="cls-10" d="M633,684l-44,12.1A3139.54,3139.54,0,0,1,367.36,384.33,3138.51,3138.51,0,0,1,179.53,35.39l83.26-.1A1798.12,1798.12,0,0,0,406.24,365.7,1797.58,1797.58,0,0,0,633,684Z" transform="translate(-34.57 -31.32)"/><path class="cls-10" d="M921.27,569.26l-26.82,14.55A1655.05,1655.05,0,0,1,696.06,337.37,1655.18,1655.18,0,0,1,539,35l91.71-.11a1408.63,1408.63,0,0,0,77,205.67A1418.2,1418.2,0,0,0,921.27,569.26Z" transform="translate(-34.57 -31.32)"/><path class="cls-10" d="M990.47,526.67l-52.64,32.94A1663.09,1663.09,0,0,1,764.61,278.27a1663.36,1663.36,0,0,1-96-245.35L695.2,34.1c17.25,44.23,37.32,90.28,60.73,137.58A1729.56,1729.56,0,0,0,990.47,526.67Z" transform="translate(-34.57 -31.32)"/><path class="cls-8" d="M434.86,378.46" transform="translate(-34.57 -31.32)"/><path class="cls-10" d="M499.42,296.29" transform="translate(-34.57 -31.32)"/><path class="cls-8" d="M402.57,610.31" transform="translate(-34.57 -31.32)"/><path class="cls-11" d="M772.14,639.61,726.9,656.1c-64.38-88.3-130.82-187.16-196.42-296.76C462.59,245.9,405.23,137.06,356.72,35.53l76.72-.38A1676.75,1676.75,0,0,0,564.56,343.07,1677.1,1677.1,0,0,0,772.14,639.61Z" transform="translate(-34.57 -31.32)"/><path class="cls-10" d="M709.63,640.62" transform="translate(-34.57 -31.32)"/><path class="cls-8" d="M731.66,635.86" transform="translate(-34.57 -31.32)"/><path class="cls-11" d="M1258.62,266.87Q1244.84,286,1231,305.1a540.41,540.41,0,0,1-82.63-118A541.12,541.12,0,0,1,1096.54,34l54.4.26A684.78,684.78,0,0,0,1191.66,151,685.58,685.58,0,0,0,1258.62,266.87Z" transform="translate(-34.57 -31.32)"/><path class="cls-10" d="M328.44,732.33l-60.68,1A949.28,949.28,0,0,1,35.53,388.72l-1-120.66a1105.73,1105.73,0,0,0,70,167.3C174.06,569.45,259.43,666.72,328.44,732.33Z" transform="translate(-34.57 -31.32)"/><path class="cls-12" d="M37,638.68c137.77,6.51,624.1,12.55,986-334.84,93.77-90,160.51-185.81,208.3-272.52L36.59,35.56" transform="translate(-34.57 -31.32)"/><text class="cls-13" transform="translate(86.79 288.25) scale(0.96 1)">HA<tspan class="cls-14" x="259.45" y="0">C</tspan><tspan x="514.53" y="0">K NC</tspan></text><text class="cls-15" transform="translate(186.09 434.08)">HEL<tspan class="cls-16" x="119.9" y="0">L</tspan><tspan class="cls-17" x="150.3" y="0">O </tspan><tspan class="cls-18" x="248.7" y="0">W</tspan><tspan x="312.6" y="0">ORLD</tspan></text><path class="cls-7" d="M1628.31,1074.32" transform="translate(-34.57 -31.32)"/><path class="cls-19" d="M2375.43,370.6c-35.13,70.13-92,160.89-183,246.47-104.36,98.19-206.67,145.47-265.6,172.1a1071.7,1071.7,0,0,1-203.29,68.31l138.08-.14A968.76,968.76,0,0,0,2167.37,702a967.27,967.27,0,0,0,212.06-221.92Q2377.44,425.35,2375.43,370.6Z" transform="translate(-34.57 -31.32)"/><path class="cls-19" d="M1939,1020.07" transform="translate(-34.57 -31.32)"/><path class="cls-20" d="M2375.43,430.77c-30.53,59.29-105.81,190.78-236.3,289-71.07,53.49-146,87.67-158.17,93.17a841.46,841.46,0,0,1-123.33,44.39l517.8.14V430.77Z" transform="translate(-34.57 -31.32)"/><path class="cls-19" d="M2137.19,1025" transform="translate(-34.57 -31.32)"/><path class="cls-7" d="M2334.79,857.47c-86.41-.05-268.42-.1-354.83-.1-84.66,0-265.92.06-350.58.11-12.51-204.15,150.9-377.74,349.48-379.53C2179.81,476.13,2347.4,650.86,2334.79,857.47Z" transform="translate(-34.57 -31.32)"/><path class="cls-21" d="M2334.79,859.58l-335.71-2.42a710.67,710.67,0,0,0,51-114.73,721.48,721.48,0,0,0,38.24-248.6c34.46,11.87,99.84,39.88,156,103.8C2337.07,703.24,2336,828.68,2334.79,859.58Z" transform="translate(-34.57 -31.32)"/><path class="cls-22" d="M1744.11,761.55" transform="translate(-34.57 -31.32)"/><path class="cls-23" d="M1628.38,857.48l307.51-.1q-8.94-55.3-21.76-115-9.08-41.76-19.16-80.74l-156.14-84a364.08,364.08,0,0,0-110.45,279.8Z" transform="translate(-34.57 -31.32)"/><path class="cls-24" d="M1952.88,857.38l197.22-.22c-1.27-5.1-14.52-54.79-63.9-74.36-6.47-2.56-52.7-20-93.49,8.5C1959.87,814.21,1953.88,850.57,1952.88,857.38Z" transform="translate(-34.57 -31.32)"/><path class="cls-25" d="M1980.62,857.15l141.74-.15c-.92-3.52-10.44-37.8-45.93-51.3-4.64-1.77-37.87-13.77-67.19,5.86C1985.65,827.37,1981.34,852.45,1980.62,857.15Z" transform="translate(-34.57 -31.32)"/><path class="cls-7" d="M1627.83,820.24q.14,9.53.28,19.06l.27,18.18,3.77-1.77q139-65.16,278.37-129.57l-7.15-43.75Z" transform="translate(-34.57 -31.32)"/><path class="cls-7" d="M1579.29,912.9" transform="translate(-34.57 -31.32)"/><path class="cls-25" d="M1727.68,576.14,1895,661.69l40.92,195.69h17l-24.72-208-99.64-49.22-82.83-43.22Z" transform="translate(-34.57 -31.32)"/></svg>